<svg width="60" height="60" viewBox="0 0 60 60" fill="none" xmlns="http://www.w3.org/2000/svg">
<path d="M14.4 28.0836V28.068V12.4668L14.256 12.36H14.244L10.968 9.936C8.96403 8.448 6.10802 8.52 4.33202 10.272C3.14402 11.448 2.40002 13.08 2.40002 14.892V19.2144L14.4 28.0836ZM45.6 28.068V28.0836L57.6 19.2144V14.892C57.6 13.104 56.88 11.472 55.704 10.296C53.952 8.5476 51.186 8.3424 49.1952 9.8124L45.744 12.36L45.6 12.4668V28.068ZM16.8 29.8416L29.2872 39.072C29.7108 39.3852 30.2904 39.3852 30.714 39.072L43.2 29.8416V14.2404L30 24L16.8 14.2404V29.8416ZM45.6 31.0668V49.2C45.6 49.8624 46.1376 50.4 46.8 50.4H54.6C56.2572 50.4 57.6 49.0572 57.6 47.4V22.1964L45.6 31.0668ZM14.4 31.0668L2.40002 22.1964V47.4C2.40002 49.0572 3.74282 50.4 5.40002 50.4H13.2C13.8624 50.4 14.4 49.8624 14.4 49.2V31.0668Z" fill="#F8F8F8"/>
</svg>
