<svg width="60" height="60" viewBox="0 0 60 60" fill="none" xmlns="http://www.w3.org/2000/svg">
<path d="M19.2 3.59998C10.596 3.59998 3.59998 10.596 3.59998 19.2V40.8C3.59998 49.404 10.596 56.4 19.2 56.4H40.8C49.404 56.4 56.4 49.404 56.4 40.8V19.2C56.4 10.596 49.404 3.59998 40.8 3.59998H19.2ZM44.4 13.2C45.72 13.2 46.8 14.28 46.8 15.6C46.8 16.92 45.72 18 44.4 18C43.08 18 42 16.92 42 15.6C42 14.28 43.08 13.2 44.4 13.2ZM30 16.8C37.284 16.8 43.2 22.716 43.2 30C43.2 37.284 37.284 43.2 30 43.2C22.716 43.2 16.8 37.284 16.8 30C16.8 22.716 22.716 16.8 30 16.8ZM30 19.2C24.048 19.2 19.2 24.048 19.2 30C19.2 35.952 24.048 40.8 30 40.8C35.952 40.8 40.8 35.952 40.8 30C40.8 24.048 35.952 19.2 30 19.2Z" fill="#F8F8F8"/>
</svg>
