<svg width="60" height="60" viewBox="0 0 60 60" fill="none" xmlns="http://www.w3.org/2000/svg">
<path d="M49.1999 4.80005H10.7999C7.48793 4.80005 4.79993 7.48805 4.79993 10.8V49.2C4.79993 52.512 7.48793 55.2 10.7999 55.2H49.1999C52.5119 55.2 55.1999 52.512 55.1999 49.2V10.8C55.1999 7.48805 52.5119 4.80005 49.1999 4.80005ZM20.3999 24V46.8H13.1999V24H20.3999ZM13.1999 17.364C13.1999 15.684 14.6399 14.4 16.7999 14.4C18.9599 14.4 20.3159 15.684 20.3999 17.364C20.3999 19.044 19.0559 20.4 16.7999 20.4C14.6399 20.4 13.1999 19.044 13.1999 17.364ZM46.7999 46.8H39.5999C39.5999 46.8 39.5999 35.688 39.5999 34.8C39.5999 32.4 38.3999 30 35.3999 29.952H35.3039C32.3999 29.952 31.1999 32.424 31.1999 34.8C31.1999 35.892 31.1999 46.8 31.1999 46.8H23.9999V24H31.1999V27.072C31.1999 27.072 33.5159 24 38.1719 24C42.9359 24 46.7999 27.276 46.7999 33.912V46.8Z" fill="#F8F8F8"/>
</svg>
