<svg width="124" height="124" viewBox="0 0 124 124" fill="none" xmlns="http://www.w3.org/2000/svg">
<path d="M44.0771 69.7228C46.9938 51.7256 53.34 34.6123 54.157 16.1273C54.5647 6.90312 46.0259 3.56949 40.7336 11.3174C24.586 34.9572 33.1485 66.1326 42.7495 90.0911C46.199 98.6989 54.157 128.169 36.9966 112.472C29.2717 103.848 24.4857 87.7794 28.146 78.999M23 85.4833C23.4835 83.3366 28.6532 72.8431 29.7202 78.3948C29.9391 79.5341 31.4815 86.4343 31.5473 85.4048M53.1271 51.9418C51.2603 55.838 48.5985 63.7164 49.5459 68.0899C49.9491 69.9514 54.2513 65.2329 54.8693 65.2329M57.3891 36.5331C55.5574 40.4049 56.9853 46.6421 57.6085 50.5988C58.4642 56.0311 58.4889 61.5174 59.0819 66.9722C59.1627 67.7147 59.0328 69.967 59.7873 70.4691M62.8595 47.824C61.2963 48.2141 63.7294 59.1242 63.9646 60.3798C64.1167 61.1921 64.842 66.9645 65.2577 66.4113M68.9244 40.1155C65.6453 43.6354 68.6279 53.6487 68.7414 57.7255C68.7752 58.9398 70.2471 68.88 70.8908 68.3606M72.0549 50.1944C74.8119 53.1361 80.6603 59.078 80.6603 63.3996C80.6603 65.4548 76.8637 64.4289 76.0049 63.5717M71.911 49.8308C74.2079 50.5951 82.9073 56.2304 84.8065 52.6014C87.4692 47.5136 81.0416 41.0468 83.626 36.5323M88.4446 85.4433C90.7415 86.2075 99.4409 91.8428 101.34 88.2138C104.003 83.126 97.5752 76.6592 100.16 72.1447M52.6787 78.9003C49.0329 83.2672 48.2912 90.9788 49.1428 96.4192C49.7413 100.242 51.8814 103.559 55.0882 105.719C55.5405 106.024 56.9582 106.481 56.2716 106.31M49.8556 94.7826C54.4747 92.2999 59.462 90.4393 64.2843 88.3784C64.8374 88.142 68.5697 86.6355 66.0237 87.0976M58.7095 81.59C58.7095 88.1362 59.9927 107.733 59.9927 101.187M66.1613 91.3723C66.1266 93.4861 66.0276 99.827 66.0276 97.713M69.5046 90.2378C69.6227 92.8318 71.894 95.6 73.2714 97.7205C73.463 98.0155 74.4882 99.3833 74.0069 99.8637C72.5312 101.337 69.5138 101.699 67.5655 102.185M74.9567 94.7282C75.3918 89.5166 75.6027 85.0419 75.6027 79.8123C75.6027 79.5304 75.5773 78.3392 75.7475 79.2373C76.1617 81.4224 77.1451 83.5732 77.8001 85.7011C78.8495 89.1106 80.3679 92.4773 81.1812 95.9483C81.2578 96.2754 82.0874 99.3351 82.2893 97.818C82.4597 96.5382 83.7084 84.8653 84.1026 84.8653M88.1601 85.2987C88.3709 86.982 89.7506 89.0315 90.5301 90.5047C90.8317 91.0747 92.803 93.6333 92.2872 94.4055C91.9837 94.8599 86.5608 94.8458 86.9565 95.0433" stroke="white" stroke-width="2.5" stroke-linecap="round"/>
</svg>
