<svg width="24" height="24" viewBox="0 0 24 24" fill="none" xmlns="http://www.w3.org/2000/svg">
<mask id="mask0_46_5" style="mask-type:alpha" maskUnits="userSpaceOnUse" x="0" y="0" width="24" height="24">
<rect width="24" height="24" fill="#D9D9D9"/>
</mask>
<g mask="url(#mask0_46_5)">
<path d="M12.0001 11.9999C10.9001 11.9999 9.95846 11.6083 9.17512 10.8249C8.39179 10.0416 8.00012 9.09994 8.00012 7.99994C8.00012 6.89994 8.39179 5.95827 9.17512 5.17494C9.95846 4.39161 10.9001 3.99994 12.0001 3.99994C13.1001 3.99994 14.0418 4.39161 14.8251 5.17494C15.6085 5.95827 16.0001 6.89994 16.0001 7.99994C16.0001 9.09994 15.6085 10.0416 14.8251 10.8249C14.0418 11.6083 13.1001 11.9999 12.0001 11.9999ZM4.00012 19.9999V17.1999C4.00012 16.6333 4.14596 16.1124 4.43762 15.6374C4.72929 15.1624 5.11679 14.7999 5.60012 14.5499C6.63346 14.0333 7.68346 13.6458 8.75012 13.3874C9.81679 13.1291 10.9001 12.9999 12.0001 12.9999C13.1001 12.9999 14.1835 13.1291 15.2501 13.3874C16.3168 13.6458 17.3668 14.0333 18.4001 14.5499C18.8835 14.7999 19.271 15.1624 19.5626 15.6374C19.8543 16.1124 20.0001 16.6333 20.0001 17.1999V19.9999H4.00012Z" fill="white"/>
</g>
</svg>
