<svg width="48" height="48" viewBox="0 0 48 48" fill="none" xmlns="http://www.w3.org/2000/svg">
<path d="M9.84139 9.68213C8.72362 15.0216 8.59744 20.6264 8.79102 26.1951M8.79102 26.1951C8.8079 26.6807 8.82722 27.166 8.84851 27.6509M8.79102 26.1951C8.90682 25.8071 9.01383 25.4486 9.07538 25.2007C9.29147 24.3303 9.52418 23.448 9.7647 22.5688M8.79102 26.1951C8.43636 27.3835 7.99931 28.849 8.53385 28.264C8.69325 28.0896 8.78656 27.8784 8.84851 27.6509M8.84851 27.6509C8.87215 28.189 8.89824 28.7266 8.92616 29.2633M8.84851 27.6509C8.9467 27.2903 8.96615 26.8888 9.04511 26.5278C9.33104 25.2206 9.57078 23.897 9.7647 22.5688M8.92616 29.2633C8.96819 30.0712 9.01439 30.8771 9.06267 31.6801M8.92616 29.2633C9.22171 27.6459 9.52489 26.0298 9.80368 24.4102C9.85413 24.1171 9.9868 22.3981 10.2346 20.8856M8.92616 29.2633C8.63554 30.8537 8.35229 32.4452 8.10685 34.0423C7.88777 35.4679 8.01865 35.0605 8.38006 33.9356L8.38513 33.9198C8.62398 33.1764 8.85009 32.4298 9.06267 31.6801M9.06267 31.6801C9.1483 33.1045 9.24051 34.5199 9.32767 35.921C9.39667 37.03 9.33458 40.0221 9.77863 37.0188C10.4083 32.7602 11.0128 28.4813 11.2355 24.18M9.06267 31.6801C9.21074 31.1579 9.35225 30.6341 9.48692 30.1088M11.2355 24.18C11.2829 23.2659 11.313 22.3507 11.3224 21.4345C11.3325 20.452 11.9654 18.0912 11.0403 18.4984C11.0017 18.5154 10.9642 18.5434 10.9278 18.5812M11.2355 24.18C10.6155 26.7331 9.92362 29.0796 9.48692 30.1088M11.2355 24.18C11.938 21.2873 12.5483 18.1292 12.5906 16.3213C12.6542 13.604 11.5832 16.5463 10.9278 18.5812M10.9278 18.5812C10.6339 18.8864 10.4066 19.8363 10.2346 20.8856M10.9278 18.5812C10.6537 19.432 10.4524 20.1241 10.437 20.1777C10.3695 20.4125 10.302 20.6486 10.2346 20.8856M10.2346 20.8856C10.0763 21.4428 9.9189 22.0051 9.7647 22.5688M9.48692 30.1088C9.95196 28.2947 10.3355 26.4619 10.6265 24.6095C10.7136 24.0547 10.9492 22.4862 10.9767 21.7724C11.0068 20.9886 10.7644 21.798 10.6832 22.0354C9.84212 24.4965 9.29315 27.1268 9.07465 29.7121C8.97325 30.9119 9.15748 30.8851 9.48692 30.1088ZM9.7647 22.5688C9.88326 21.7567 9.98469 20.9429 10.0691 20.13C10.3474 17.4483 10.2384 14.9658 9.82171 12.3216" stroke="#FF6B00" stroke-width="1.4" stroke-linecap="round"/>
<path d="M24.1208 3C22.5373 10.8312 22.3586 19.0516 22.6328 27.219M22.6328 27.219C22.6567 27.9312 22.6841 28.643 22.7143 29.3541M22.6328 27.219C22.7969 26.6499 22.9485 26.1242 23.0357 25.7606C23.3418 24.484 23.6715 23.19 24.0122 21.9005M22.6328 27.219C22.1304 28.9619 21.5112 31.1115 22.2685 30.2534C22.4943 29.9976 22.6265 29.6878 22.7143 29.3541M22.7143 29.3541C22.7478 30.1434 22.7847 30.9319 22.8243 31.719M22.7143 29.3541C22.8534 28.8253 22.8809 28.2365 22.9928 27.707C23.3978 25.7897 23.7375 23.8485 24.0122 21.9005M22.8243 31.719C22.8838 32.9039 22.9493 34.0859 23.0177 35.2637M22.8243 31.719C23.243 29.3469 23.6725 26.9766 24.0674 24.6012C24.1389 24.1713 24.3268 21.65 24.6779 19.4318M22.8243 31.719C22.4126 34.0516 22.0113 36.3859 21.6636 38.7283C21.3532 40.8191 21.5386 40.2216 22.0506 38.5717L22.0578 38.5486C22.3962 37.4582 22.7165 36.3633 23.0177 35.2637M23.0177 35.2637C23.139 37.3528 23.2696 39.4287 23.3931 41.4836C23.4908 43.1102 23.4029 47.4986 24.0319 43.0938C24.924 36.8478 25.7803 30.5721 26.0959 24.2636M23.0177 35.2637C23.2274 34.4978 23.4279 33.7296 23.6187 32.9591M26.0959 24.2636C26.1629 22.9228 26.2056 21.5805 26.2189 20.2367C26.2332 18.7958 27.1298 15.3332 25.8192 15.9306C25.7646 15.9555 25.7115 15.9965 25.6599 16.052M26.0959 24.2636C25.2175 28.0081 24.2373 31.4496 23.6187 32.9591M26.0959 24.2636C27.0911 20.0208 27.9556 15.389 28.0156 12.7374C28.1057 8.75206 26.5884 13.0675 25.6599 16.052M25.6599 16.052C25.2436 16.4996 24.9215 17.8927 24.6779 19.4318M25.6599 16.052C25.2717 17.2998 24.9864 18.3149 24.9646 18.3936C24.869 18.7379 24.7733 19.0842 24.6779 19.4318M24.6779 19.4318C24.4536 20.2489 24.2306 21.0738 24.0122 21.9005M23.6187 32.9591C24.2775 30.2984 24.8208 27.6104 25.233 24.8935C25.3565 24.0797 25.6903 21.7792 25.7292 20.7325C25.7719 19.5829 25.4284 20.77 25.3135 21.1181C24.1219 24.7278 23.3442 28.5855 23.0346 32.3773C22.891 34.1369 23.152 34.0978 23.6187 32.9591ZM24.0122 21.9005C24.1802 20.7094 24.3239 19.5158 24.4434 18.3235C24.8377 14.3904 24.6832 10.7494 24.093 6.87125" stroke="#FF6B00" stroke-width="3" stroke-linecap="round"/>
<path d="M38.0507 14.8359C37.2589 18.2532 37.1695 21.8403 37.3066 25.4042M37.3066 25.4042C37.3186 25.715 37.3323 26.0256 37.3474 26.3359M37.3066 25.4042C37.3887 25.1559 37.4645 24.9265 37.5081 24.7678C37.6611 24.2108 37.826 23.6461 37.9963 23.0834M37.3066 25.4042C37.0554 26.1648 36.7458 27.1028 37.1245 26.7283C37.2374 26.6167 37.3035 26.4815 37.3474 26.3359M37.3474 26.3359C37.3641 26.6803 37.3826 27.0244 37.4024 27.3679M37.3474 26.3359C37.4169 26.1052 37.4307 25.8482 37.4866 25.6172C37.6892 24.7805 37.859 23.9335 37.9963 23.0834M37.4024 27.3679C37.4321 27.8849 37.4649 28.4007 37.4991 28.9146M37.4024 27.3679C37.6117 26.3328 37.8265 25.2984 38.0239 24.2619C38.0597 24.0743 38.1537 22.9741 38.3292 22.0062M37.4024 27.3679C37.1965 28.3857 36.9959 29.4043 36.822 30.4265C36.6668 31.3388 36.7595 31.0781 37.0155 30.3581L37.0191 30.348C37.1883 29.8722 37.3485 29.3945 37.4991 28.9146M37.4991 28.9146C37.5597 29.8263 37.625 30.7321 37.6868 31.6288C37.7356 32.3386 37.6917 34.2535 38.0062 32.3314C38.4522 29.6059 38.8804 26.8674 39.0382 24.1146M37.4991 28.9146C37.6039 28.5804 37.7042 28.2452 37.7996 27.909M39.0382 24.1146C39.0717 23.5295 39.093 22.9438 39.0997 22.3574C39.1069 21.7287 39.5551 20.2177 38.8999 20.4784C38.8726 20.4892 38.846 20.5071 38.8202 20.5314M39.0382 24.1146C38.599 25.7486 38.1089 27.2503 37.7996 27.909M39.0382 24.1146C39.5358 22.2632 39.968 20.242 39.998 19.085C40.0431 17.3459 39.2844 19.229 38.8202 20.5314M38.8202 20.5314C38.612 20.7267 38.451 21.3346 38.3292 22.0062M38.8202 20.5314C38.6261 21.0759 38.4834 21.5188 38.4725 21.5531C38.4247 21.7034 38.3769 21.8545 38.3292 22.0062M38.3292 22.0062C38.2171 22.3627 38.1056 22.7227 37.9963 23.0834M37.7996 27.909C38.129 26.748 38.4006 25.575 38.6067 24.3894C38.6685 24.0344 38.8354 23.0305 38.8548 22.5737C38.8762 22.0721 38.7044 22.5901 38.647 22.742C38.0512 24.3171 37.6623 26.0005 37.5076 27.6551C37.4357 28.423 37.5662 28.4059 37.7996 27.909ZM37.9963 23.0834C38.0803 22.5637 38.1522 22.0428 38.2119 21.5226C38.4091 19.8063 38.3318 18.2175 38.0367 16.5252" stroke="#FF6B00" stroke-width="1.4" stroke-linecap="round"/>
</svg>
